<svg width="50" height="50" viewBox="0 0 24 24" fill="none" xmlns="http://www.w3.org/2000/svg">
<path d="M12.001 2C6.476 2 2.001 6.475 2.001 12C1.9998 14.0992 2.6596 16.1454 3.88681 17.8484C5.11402 19.5515 6.84633 20.8249 8.838 21.488C9.338 21.575 9.526 21.275 9.526 21.012C9.526 20.775 9.513 19.988 9.513 19.15C7.001 19.613 6.351 18.538 6.151 17.975C6.038 17.687 5.551 16.8 5.126 16.562C4.776 16.375 4.276 15.912 5.113 15.9C5.901 15.887 6.463 16.625 6.651 16.925C7.551 18.437 8.988 18.012 9.563 17.75C9.651 17.1 9.913 16.663 10.201 16.413C7.976 16.163 5.651 15.3 5.651 11.475C5.651 10.387 6.038 9.488 6.676 8.787C6.576 8.537 6.226 7.512 6.776 6.137C6.776 6.137 7.613 5.875 9.526 7.163C10.3401 6.93706 11.1812 6.82334 12.026 6.825C12.876 6.825 13.726 6.937 14.526 7.162C16.439 5.862 17.276 6.138 17.276 6.138C17.826 7.513 17.476 8.538 17.376 8.788C18.013 9.488 18.401 10.375 18.401 11.475C18.401 15.313 16.064 16.163 13.838 16.413C14.201 16.725 14.514 17.325 14.514 18.263C14.514 19.6 14.501 20.675 14.501 21.013C14.501 21.275 14.689 21.587 15.189 21.487C17.1738 20.8166 18.8985 19.5408 20.1203 17.8389C21.3421 16.1371 21.9995 14.095 22 12C22 6.475 17.525 2 12 2H12.001Z" fill="black"/>
</svg>
